<svg id="visual" viewBox="0 0 1920 1080" width="1920" height="1080" xmlns="http://www.w3.org/2000/svg" xmlns:xlink="http://www.w3.org/1999/xlink" version="1.1"><rect x="0" y="0" width="1920" height="1080" fill="#EFEFEF"></rect><defs><linearGradient id="grad1_0" x1="43.8%" y1="100%" x2="100%" y2="0%"><stop offset="14.444444444444446%" stop-color="#ff3b3e" stop-opacity="1"></stop><stop offset="85.55555555555554%" stop-color="#ff3b3e" stop-opacity="1"></stop></linearGradient></defs><defs><linearGradient id="grad1_1" x1="43.8%" y1="100%" x2="100%" y2="0%"><stop offset="14.444444444444446%" stop-color="#ff3b3e" stop-opacity="1"></stop><stop offset="85.55555555555554%" stop-color="#ff9f93" stop-opacity="1"></stop></linearGradient></defs><defs><linearGradient id="grad1_2" x1="43.8%" y1="100%" x2="100%" y2="0%"><stop offset="14.444444444444446%" stop-color="#efefef" stop-opacity="1"></stop><stop offset="85.55555555555554%" stop-color="#ff9f93" stop-opacity="1"></stop></linearGradient></defs><defs><linearGradient id="grad2_0" x1="0%" y1="100%" x2="56.3%" y2="0%"><stop offset="14.444444444444446%" stop-color="#ff3b3e" stop-opacity="1"></stop><stop offset="85.55555555555554%" stop-color="#ff3b3e" stop-opacity="1"></stop></linearGradient></defs><defs><linearGradient id="grad2_1" x1="0%" y1="100%" x2="56.3%" y2="0%"><stop offset="14.444444444444446%" stop-color="#ff9f93" stop-opacity="1"></stop><stop offset="85.55555555555554%" stop-color="#ff3b3e" stop-opacity="1"></stop></linearGradient></defs><defs><linearGradient id="grad2_2" x1="0%" y1="100%" x2="56.3%" y2="0%"><stop offset="14.444444444444446%" stop-color="#ff9f93" stop-opacity="1"></stop><stop offset="85.55555555555554%" stop-color="#efefef" stop-opacity="1"></stop></linearGradient></defs><g transform="translate(1920, 1080)"><path d="M-540 0C-530.3 -102.2 -520.7 -204.4 -467.7 -270C-414.6 -335.6 -318.2 -364.7 -233 -403.6C-147.8 -442.5 -73.9 -491.2 0 -540L0 0Z" fill="#fec8c0"></path><path d="M-360 0C-353.6 -68.1 -347.1 -136.3 -311.8 -180C-276.4 -223.7 -212.1 -243.1 -155.3 -269C-98.6 -295 -49.3 -327.5 0 -360L0 0Z" fill="#ff7467"></path><path d="M-180 0C-176.8 -34.1 -173.6 -68.1 -155.9 -90C-138.2 -111.9 -106.1 -121.6 -77.7 -134.5C-49.3 -147.5 -24.6 -163.7 0 -180L0 0Z" fill="#ff3b3e"></path></g><g transform="translate(0, 0)"><path d="M540 0C528.3 98.7 516.7 197.5 467.7 270C418.6 342.5 332.2 388.9 248 429.5C163.8 470.2 81.9 505.1 0 540L0 0Z" fill="#fec8c0"></path><path d="M360 0C352.2 65.8 344.5 131.6 311.8 180C279.1 228.4 221.4 259.3 165.3 286.4C109.2 313.5 54.6 336.7 0 360L0 0Z" fill="#ff7467"></path><path d="M180 0C176.1 32.9 172.2 65.8 155.9 90C139.5 114.2 110.7 129.6 82.7 143.2C54.6 156.7 27.3 168.4 0 180L0 0Z" fill="#ff3b3e"></path></g></svg>