<svg id="visual" viewBox="0 0 675 900" width="675" height="900" xmlns="http://www.w3.org/2000/svg" xmlns:xlink="http://www.w3.org/1999/xlink" version="1.1"><rect x="0" y="0" width="675" height="900" fill="#EFEFEF"></rect><defs><linearGradient id="grad1_0" x1="0%" y1="0%" x2="100%" y2="100%"><stop offset="30%" stop-color="#ff3b3e" stop-opacity="1"></stop><stop offset="70%" stop-color="#ff3b3e" stop-opacity="1"></stop></linearGradient></defs><defs><linearGradient id="grad1_1" x1="0%" y1="0%" x2="100%" y2="100%"><stop offset="30%" stop-color="#ff3b3e" stop-opacity="1"></stop><stop offset="70%" stop-color="#ff9f93" stop-opacity="1"></stop></linearGradient></defs><defs><linearGradient id="grad1_2" x1="0%" y1="0%" x2="100%" y2="100%"><stop offset="30%" stop-color="#efefef" stop-opacity="1"></stop><stop offset="70%" stop-color="#ff9f93" stop-opacity="1"></stop></linearGradient></defs><defs><linearGradient id="grad2_0" x1="0%" y1="0%" x2="100%" y2="100%"><stop offset="30%" stop-color="#ff3b3e" stop-opacity="1"></stop><stop offset="70%" stop-color="#ff3b3e" stop-opacity="1"></stop></linearGradient></defs><defs><linearGradient id="grad2_1" x1="0%" y1="0%" x2="100%" y2="100%"><stop offset="30%" stop-color="#ff9f93" stop-opacity="1"></stop><stop offset="70%" stop-color="#ff3b3e" stop-opacity="1"></stop></linearGradient></defs><defs><linearGradient id="grad2_2" x1="0%" y1="0%" x2="100%" y2="100%"><stop offset="30%" stop-color="#ff9f93" stop-opacity="1"></stop><stop offset="70%" stop-color="#efefef" stop-opacity="1"></stop></linearGradient></defs><g transform="translate(675, 0)"><path d="M0 281.3C-46 268.9 -92.1 256.6 -135.5 234.7C-178.9 212.8 -219.7 181.3 -243.6 140.6C-267.4 99.9 -274.3 50 -281.2 0L0 0Z" fill="#fec8c0"></path><path d="M0 187.5C-30.7 179.3 -61.4 171.1 -90.3 156.5C-119.3 141.9 -146.5 120.9 -162.4 93.8C-178.3 66.6 -182.9 33.3 -187.5 0L0 0Z" fill="#ff7467"></path><path d="M0 93.8C-15.3 89.6 -30.7 85.5 -45.2 78.2C-59.6 70.9 -73.2 60.4 -81.2 46.9C-89.1 33.3 -91.4 16.7 -93.7 0L0 0Z" fill="#ff3b3e"></path></g><g transform="translate(0, 900)"><path d="M0 -281.2C53.3 -276.3 106.6 -271.3 140.6 -243.6C174.6 -215.8 189.4 -165.4 209.6 -121C229.8 -76.6 255.5 -38.3 281.3 0L0 0Z" fill="#fec8c0"></path><path d="M0 -187.5C35.5 -184.2 71.1 -180.9 93.7 -162.4C116.4 -143.9 126.2 -110.3 139.7 -80.7C153.2 -51.1 170.4 -25.5 187.5 0L0 0Z" fill="#ff7467"></path><path d="M0 -93.7C17.8 -92.1 35.5 -90.4 46.9 -81.2C58.2 -71.9 63.1 -55.1 69.9 -40.3C76.6 -25.5 85.2 -12.8 93.8 0L0 0Z" fill="#ff3b3e"></path></g></svg>